<svg viewBox="0,0,954,507.44680506000003" width="954" height="507.44680506000003" xmlns="http://www.w3.org/2000/svg" xmlns:xlink="http://www.w3.org/1999/xlink"><g class="shot-group"/><g><line x1="1" x2="954" y1="1" y2="1" stroke-width="2" stroke="black"/><line x1="1" x2="1" y1="1" y2="507.44680506000003" stroke-width="2" stroke="black"/><line x1="953" x2="953" y1="506.44680506000003" y2="0" stroke-width="2" stroke="black"/><line x1="0" x2="954" y1="506.44680506000003" y2="506.44680506000003" stroke-widtht="2" stroke="black"/><line y1="284.1702108336" y2="223.2765942264" x1="40.59574468085106" x2="40.59574468085106" stroke-width="2" stroke="black"/><line y1="284.1702108336" y2="223.2765942264" x1="913.404255319149" x2="913.404255319149" stroke-width="2" stroke="black"/><circle cx="50.74468085106383" cy="253.72340253000002" r="10.5" stroke-width="2" stroke="black" fill="none"/><circle cx="903.2553191489361" cy="253.72340253000002" r="10.5" stroke-width="2" stroke="black" fill="none"/><rect x="0" y="172.53191372039998" width="190" height="160" stroke="black" stroke-width="2" fill="none"/><rect x="764" y="172.53191372039998" width="190" height="160" stroke="black" stroke-width="2" fill="none"/><line y1="192.8297859228" y2="192.8297859228" x1="0" x2="190" stroke-width="2" stroke="black"/><line y1="314.61701913720003" y2="314.61701913720003" x1="0" x2="190" stroke-width="2" stroke="black"/><line y1="192.8297859228" y2="192.8297859228" x1="954" x2="764" stroke-width="2" stroke="black"/><line y1="314.61701913720003" y2="314.61701913720003" x1="954" x2="764" stroke-width="2" stroke="black"/><line y1="30.44680830360005" y2="30.44680830360005" x1="0" x2="142.08510638297872" stroke-width="2" stroke="black"/><line y1="476.99999675640004" y2="476.99999675640004" x1="0" x2="142.08510638297872" stroke-width="2" stroke="black"/><path class="arc" d="M90.67432297162668,-224.42682472949633A242.05212765957447,242.05212765957447,0,0,1,90.67432297162668,224.42682472949633L89.91395129052289,222.54483877788627A240.0223404255319,240.0223404255319,0,0,0,89.91395129052289,-222.54483877788627Z" stroke-width="2" transform="translate(50.74468085106383, 253.72340253000002)"/><line y1="30.44680830360005" y2="30.44680830360005" x1="1018.9531914893618" x2="811.9148936170213" stroke-width="2" stroke="black"/><line y1="476.99999675640004" y2="476.99999675640004" x1="1018.9531914893618" x2="811.9148936170213" stroke-width="2" stroke="black"/><path class="arc" d="M90.67432297162668,-224.42682472949633A242.05212765957447,242.05212765957447,0,0,1,90.67432297162668,224.42682472949633L89.91395129052289,222.54483877788627A240.0223404255319,240.0223404255319,0,0,0,89.91395129052289,-222.54483877788627Z" stroke-width="2" transform="translate(903.2553191489361, 253.72340253000002), rotate(180)"/><path class="arc" d="M3.857637417314163e-15,-63A63,63,0,1,1,3.857637417314163e-15,63L3.7351727373994275e-15,61A61,61,0,1,0,3.7351727373994275e-15,-61Z" stroke-width="2" transform="translate(186.7404255319149, 253.72340253000002)"/><path class="arc" d="M3.7351727373994275e-15,-61A61,61,0,1,1,3.7351727373994275e-15,61A61,61,0,1,0,3.7351727373994275e-15,-61Z" stroke="black" stroke-width="2" fill="none" transform="translate(186.7404255319149, 253.72340253000002), rotate(180)" style="stroke-dasharray: 20, 20;"/><path class="arc" d="M3.857637417314163e-15,-63A63,63,0,1,1,3.857637417314163e-15,63L3.7351727373994275e-15,61A61,61,0,1,0,3.7351727373994275e-15,-61Z" stroke-width="2" transform="translate(767.2595744680851, 253.72340253000002), rotate(180)"/><path class="arc" d="M3.7351727373994275e-15,-61A61,61,0,1,1,3.7351727373994275e-15,61A61,61,0,1,0,3.7351727373994275e-15,-61Z" stroke="black" stroke-width="2" fill="none" transform="translate(767.2595744680851, 253.72340253000002)" style="stroke-dasharray: 20, 20;"/><line y1="0" y2="507.44680506000003" x1="477" x2="477" stroke-width="2" stroke="black"/><circle cx="477.5" cy="253.72340253000002" r="20" stroke-width="2" stroke="black" fill="none"/><circle cx="477.5" cy="253.72340253000002" r="60" stroke-width="2" stroke="black" fill="none"/></g></svg>